<mxfile host="app.diagrams.net" modified="2023-05-28T17:14:58.446Z" agent="Mozilla/5.0 (Windows NT 10.0; Win64; x64) AppleWebKit/537.36 (KHTML, like Gecko) Chrome/113.0.0.0 Safari/537.36" version="21.3.5" etag="u0YPAmbe0oqAwVx7p4J2" type="github">
  <diagram name="Страница 1" id="Xj77VJ7k5b2KOoEorl-B">
    <mxGraphModel>
      <root>
        <mxCell id="0" />
        <mxCell id="1" parent="0" />
      </root>
    </mxGraphModel>
  </diagram>
</mxfile>
